<?xml version="1.0" encoding="utf-8"?>
<!-- Generator: Adobe Illustrator 24.0.2, SVG Export Plug-In . SVG Version: 6.00 Build 0)  -->
<svg version="1.0" id="Capa_1" xmlns="http://www.w3.org/2000/svg" xmlns:xlink="http://www.w3.org/1999/xlink" x="0px" y="0px"
	 viewBox="0 0 256 256" enable-background="new 0 0 256 256" xml:space="preserve">
<circle fill="#4B5057" cx="128" cy="128" r="128"/>
<path fill="#FFFFFF" d="M29.69,187.09c9.83-11.04,24.46-19.17,39.66-18.2c-24.85-37.58-7.61-91.76,38.6-100.31
	c31.71-6.75,69.08,17.41,68.75,52.14c0.21,26.1-27.33,40.62-47.18,22.54c-6.6-6.25-12.23-22.79-0.98-26.82
	c10.61-2.17,11.94,10.65,2.06,12.81c7.2,2.96,14.87-4.92,10.15-12.07c-5.74-9.48-22.33-7.96-25.47,2.97
	c-2.93,7.56-1.74,14.76,2.14,21.57c11.81,22.94,44.6,24.84,61.22,6.09c17.4-16.31,12.55-42.38-1.66-59.08
	c-1.73-1.32-4.85-1.87-4.32-4.56c0.26-2.14,1.77-3.5,3.8-3.46c1.76,0.04,3.08,1.48,3.34,3.45c7.21,9.87,16.09,18.88,20.95,30.52
	c2.73-1.8,5.42-3.46,8.81-3.4c0.8-0.02,1.23-0.24,1.58-0.98c2.61-5.79,7.44-19.97,4.95-25.74c-1.08-1.29-0.52-3.34,0.84-4.46
	c2.87-2.58,7.75,1.64,5.25,4.71c-0.76,0.89-0.82,1.77-0.8,2.79c0.22,8.54-0.2,17.05-1.8,25.46c13.4,9.32,3.87,35.21-3.77,46
	c-20.36,27.29-57.83,30.24-89.28,29.35c-32.22-0.07-64.44-0.78-96.66-0.77C29.82,187.47,29.75,187.28,29.69,187.09z"/>
</svg>
