<?xml version="1.0" encoding="utf-8"?>
<!-- Generator: Adobe Illustrator 24.0.2, SVG Export Plug-In . SVG Version: 6.00 Build 0)  -->
<svg version="1.0" id="Capa_1" xmlns="http://www.w3.org/2000/svg" xmlns:xlink="http://www.w3.org/1999/xlink" x="0px" y="0px"
	 viewBox="0 0 789 161" enable-background="new 0 0 789 161" xml:space="preserve">
<path fill="#4B5057" d="M8.8,152.94c12.05-13.53,29.98-23.49,48.61-22.3C26.94,84.59,48.07,18.18,104.7,7.7
	c38.85-8.27,84.65,21.33,84.25,63.9c0.26,31.98-33.5,49.78-57.82,27.62c-8.09-7.66-14.99-27.93-1.2-32.87
	c13-2.66,14.63,13.06,2.53,15.7c8.83,3.63,18.22-6.02,12.44-14.79c-7.03-11.62-27.37-9.75-31.21,3.64
	c-3.59,9.26-2.13,18.09,2.62,26.43c14.47,28.12,54.66,30.45,75.03,7.47c21.32-19.98,15.38-51.94-2.03-72.4
	c-2.12-1.61-5.94-2.29-5.29-5.59c0.32-2.62,2.16-4.29,4.66-4.24c2.16,0.05,3.78,1.82,4.1,4.23c8.84,12.1,19.71,23.14,25.67,37.4
	c3.34-2.2,6.64-4.24,10.8-4.17c0.98-0.02,1.51-0.29,1.94-1.2c3.19-7.1,9.12-24.47,6.07-31.55c-1.32-1.58-0.64-4.1,1.03-5.46
	c3.52-3.16,9.5,2.01,6.44,5.77c-0.93,1.09-1.01,2.16-0.98,3.42c0.27,10.47-0.25,20.89-2.21,31.21c16.42,11.43,4.74,43.15-4.62,56.37
	c-24.95,33.45-70.88,37.05-109.41,35.97c-39.49-0.09-78.97-0.95-118.46-0.94C8.95,153.39,8.88,153.16,8.8,152.94z"/>
<g>
	<g>
		<path fill="#4B5057" d="M286.47,115.46c0-2.09,0.41-4.18,1-6.52l5.42-21.76h-17.85l2.44-11.65h32.76l-8.02,34.12
			c-0.25,0.96-0.44,1.93-0.44,2.83c0,4.46,2.64,6.28,6.5,6.28c2.64,0,5.07-0.78,8.5-2.18l3.07,11.21c-4.71,2-9.52,3.18-16.17,3.18
			C293.28,130.98,286.47,125.14,286.47,115.46z M294.4,58.4c0-5.53,4.83-10.36,10.92-10.36c5.55,0,9.56,2.97,9.56,8.49
			c0,5.91-4.91,10.36-11.02,10.36C298.94,66.89,294.4,64.11,294.4,58.4z"/>
		<path fill="#4B5057" d="M344.2,75.53h12.1l-0.63,9.31h0.44c5.42-5.38,13.43-10.62,21.11-10.62c9.07,0,14.04,4.92,14.04,13.91
			c0,2.58-0.36,5.39-0.9,8.1l-6.71,33.44h-14.94l6.33-31.62c0.47-2.18,0.82-4,0.82-5.61c0-3.66-2-5.48-5.57-5.48
			c-4.57,0-10.23,3.35-15.31,9.7l-6.48,33.01h-14.94L344.2,75.53z"/>
		<path fill="#4B5057" d="M412.7,114.63c0-2.21,0.25-4.21,0.87-7.11l4.14-20.34H403.5l2.22-11.02l14.99-0.62l5.53-16.55h12.18
			l-3.49,16.55h23.01l-2.29,11.65h-23.2l-4.17,19.77c-0.44,1.96-0.47,2.99-0.47,4.17c0,5.51,3.19,7.65,7.77,7.65
			c4.45,0,8.75-1.87,12.02-3.9l4.54,10.44c-4.82,3.23-12.74,5.67-21.1,5.67C418.19,130.98,412.7,124.55,412.7,114.63z"/>
		<path fill="#4B5057" d="M467.86,106.96c0-19.49,14.82-32.74,31.41-32.74c14.01,0,22,8.7,22,21.27c0,4.5-1.19,9.49-1.81,11.3
			h-40.44l1.64-9.7h30.55l-4.28,2.27c0.36-1.29,0.66-2.8,0.66-4.2c0-6.17-3.42-9.49-8.75-9.49c-6.95,0-16.07,6.79-16.07,20.69
			c0,9.75,5.7,13.15,12.63,13.15c6.2,0,11.24-2.4,16.23-5.69l4.98,9.93c-6.37,4.49-14.98,7.23-24.65,7.23
			C478.04,130.98,467.86,123.38,467.86,106.96z"/>
		<path fill="#4B5057" d="M546.89,75.42l12.18,0.11l-1.58,14.46h0.44c5.77-9.61,14.12-15.77,22.37-15.77c4.74,0,8.58,0.9,10.7,2.33
			l-5.35,12.87c-2.49-1.32-5.11-1.9-8.29-1.9c-7.16,0-15.04,7.04-21.3,18.26l-4.86,23.88h-14.94L546.89,75.42z"/>
		<path fill="#4B5057" d="M606.1,75.53h12.1l-0.63,9.31h0.44c5.42-5.38,13.43-10.62,21.11-10.62c9.07,0,14.04,4.92,14.04,13.91
			c0,2.58-0.36,5.39-0.9,8.1l-6.71,33.44h-14.94l6.33-31.62c0.47-2.18,0.82-4,0.82-5.61c0-3.66-2-5.48-5.57-5.48
			c-4.57,0-10.23,3.35-15.31,9.7l-6.48,33.01h-14.94L606.1,75.53z"/>
		<path fill="#4B5057" d="M662.51,102.01c0-24.46,14.59-44.76,35.68-44.76c14.7,0,23.92,11,23.92,28.97
			c0,24.46-14.48,44.76-35.5,44.76C671.84,130.98,662.51,119.95,662.51,102.01z M706.78,84.84c0-9.79-3.18-14.66-10.05-14.66
			c-11.09,0-18.87,15.1-18.87,33.18c0,9.79,3.26,14.69,10.24,14.69C699.18,118.05,706.78,102.95,706.78,84.84z"/>
		<path fill="#4B5057" d="M727.32,117.08l9.75-8.5c4.02,6.18,9.58,9.55,16.35,9.55c6.51,0,10.96-2.82,10.96-7.85
			c0-4.12-3.15-6.4-8.21-9.41l-6.61-3.97c-6.46-3.84-11.91-9.77-11.91-18.93c0-12.6,10.61-20.73,24.25-20.73
			c10.06,0,18.8,5.09,23.61,11.85l-9.53,8.19c-3.33-4-8.05-7.37-14.2-7.37c-4.88,0-8.67,2.59-8.67,6.99c0,3.65,2.87,5.94,6.72,8.36
			l7.68,4.89c6.92,4.49,12.23,9.4,12.23,18.97c0,14.21-11.56,21.86-25.91,21.86C741.01,130.98,732.31,125.09,727.32,117.08z"/>
	</g>
</g>
</svg>
